<svg xmlns="http://www.w3.org/2000/svg" width="100" height="100" viewBox="0 0 100 100">
  <circle cx="50" cy="50" r="40" fill="#FCC117" />
  <path d="M38.97 63.56l-6.8 10.96c-.73 1.18-.12 2.72 1.17 3.44l4.9 2.37c1.28.62 2.78-.01 3.41-1.29l1.78-3.08c.1-.17.23-.32.4-.46l8.43-5.32c.92-.58.76-1.89-.23-2.34l-9.88-4.8c-1.2-.59-2.62.08-3.21 1.29l-2.17 4.15c-.11.19-.26.36-.45.5zm19.58-4.2c-.68-1.1-2.01-1.34-3.1-.65l-7.23 4.5c-1.1.68-1.34 2.01-.65 3.1l5.97 9.64c.54.88 1.56 1.19 2.44.65l4.46-2.77c1.11-.69 1.34-2.02.66-3.11l-2.65-4.28c-.17-.28-.39-.51-.67-.67l-5.38-2.65zm-15.62 4.18c.1-1.49-1.08-2.74-2.57-2.84l-10.62-.88c-1.49-.1-2.74 1.08-2.84 2.57l-.6 9.85c-.05.83.55 1.55 1.37 1.7l11.12 1.12c1.49.1 2.74-1.08 2.84-2.57l.6-9.85zm4.26-20.14c-.67-1.09-2-1.35-3.09-.68l-4.52 2.8c-1.09.67-1.35 2-.68 3.09l1.88 3.05c.18.28.42.51.72.68l6.77 2.8c1.09.67 2.52.42 3.18-.68l2.79-4.53c.67-1.09.42-2.52-.68-3.18l-3.06-1.88zm-6.6 26.47c-.95-.01-1.71-.78-1.7-1.73l.02-11.06c.01-.95.78-1.71 1.73-1.7l11.06.02c.95.01 1.71.78 1.7 1.73l-.02 11.06c-.01.95-.78 1.71-1.73 1.7l-11.06-.02zm19.23-9.03c-.68 1.1-2.02 1.35-3.11.67l-2.8-1.88c-1.09-.68-2.33-.41-3.18.68l-1.88 3.06c-.28.46-.5.99-.68 1.54l-2.8 6.78c-.68 1.1-.42 2.53.67 3.18l4.53 2.79c1.1.67 2.53.42 3.18-.67l2.8-4.52c.68-1.1.42-2.53-.67-3.18l-1.88-1.22z" fill="#F76B1C"/>
</svg>
