<svg xmlns="http://www.w3.org/2000/svg" width="150" height="150" viewBox="0 0 150 150">
  <defs>
    <linearGradient id="gradient" gradientTransform="rotate(45)">
      <stop offset="0%" stop-color="#FFC107" />
      <stop offset="100%" stop-color="#FF9800" />
    </linearGradient>
    <filter id="drop-shadow" x="-20%" y="-20%" width="140%" height="140%">
      <feGaussianBlur in="SourceAlpha" stdDeviation="3" />
      <feOffset dx="2" dy="2" result="offsetblur" />
      <feMerge>
        <feMergeNode />
        <feMergeNode in="SourceGraphic" />
      </feMerge>
    </filter>
  </defs>
  <rect x="20" y="40" width="110" height="80" rx="10" ry="10" fill="url(#gradient)" filter="url(#drop-shadow)" />
  <rect x="25" y="20" width="100" height="30" rx="5" ry="5" fill="url(#gradient)" filter="url(#drop-shadow)" />
  <path d="M45 20V10h60v10h-60zm40-8v4h-40v-4h40z" fill="#FFF" />
  <rect x="55" y="55" width="40" height="30" rx="5" ry="5" fill="#FFF" />
  <path d="M75 75h15v15h-15zm0-25h15v15h-15zm0 50h15v15h-15zm-25-25h15v15h-15zm0 50h15v15h-15zm0-25h15v15h-15zm25-25h15v15h-15zm0 50h15v15h-15zm0-25h15v15h-15zm25-25h15v15h-15zm0 50h15v15h-15z" fill="#FFC107" />
</svg>
